<?xml version="1.0" encoding="UTF-8" standalone="no"?>
<!-- Created with Inkscape (http://www.inkscape.org/) -->

<svg
   width="8.2766933mm"
   height="8.2763844mm"
   viewBox="0 0 8.2766931 8.2763844"
   version="1.1"
   id="svg1"
   xml:space="preserve"
   inkscape:version="1.3 (0e150ed6c4, 2023-07-21)"
   sodipodi:docname="icon.svg"
   inkscape:export-filename="icon.png"
   inkscape:export-xdpi="96"
   inkscape:export-ydpi="96"
   xmlns:inkscape="http://www.inkscape.org/namespaces/inkscape"
   xmlns:sodipodi="http://sodipodi.sourceforge.net/DTD/sodipodi-0.dtd"
   xmlns="http://www.w3.org/2000/svg"
   xmlns:svg="http://www.w3.org/2000/svg"><sodipodi:namedview
     id="namedview1"
     pagecolor="#505050"
     bordercolor="#eeeeee"
     borderopacity="1"
     inkscape:showpageshadow="0"
     inkscape:pageopacity="0"
     inkscape:pagecheckerboard="0"
     inkscape:deskcolor="#505050"
     inkscape:document-units="mm"
     inkscape:zoom="16.396117"
     inkscape:cx="12.68593"
     inkscape:cy="13.082366"
     inkscape:window-width="1920"
     inkscape:window-height="1009"
     inkscape:window-x="-8"
     inkscape:window-y="-8"
     inkscape:window-maximized="1"
     inkscape:current-layer="layer1" /><defs
     id="defs1" /><g
     inkscape:label="Camada 1"
     inkscape:groupmode="layer"
     id="layer1"
     transform="translate(116.12059,-24.963769)"><g
       id="g2"
       style="fill:#ffffff;fill-opacity:1"><path
         style="fill:#ffffff;fill-opacity:1;stroke:#000000;stroke-width:0.544435;stroke-linecap:round;stroke-linejoin:bevel;stroke-dasharray:none;stroke-opacity:1"
         id="path1"
         sodipodi:type="arc"
         sodipodi:cx="-111.98181"
         sodipodi:cy="29.101961"
         sodipodi:rx="3.2705259"
         sodipodi:ry="3.2705259"
         sodipodi:start="4.1887902"
         sodipodi:end="3.4906585"
         sodipodi:arc-type="arc"
         d="m -113.61707,26.269603 a 3.2705259,3.2705259 0 0 1 4.14063,0.730105 3.2705259,3.2705259 0 0 1 0,4.204507 3.2705259,3.2705259 0 0 1 -4.14063,0.730105 3.2705259,3.2705259 0 0 1 -1.43803,-3.950945"
         sodipodi:open="true" /></g><g
       id="g1"><path
         style="fill:none;fill-opacity:1;stroke:#000000;stroke-width:0.544435;stroke-linecap:round;stroke-linejoin:bevel;stroke-dasharray:none;stroke-opacity:1"
         id="path14"
         sodipodi:type="arc"
         sodipodi:cx="-111.98181"
         sodipodi:cy="29.101961"
         sodipodi:rx="3.2705259"
         sodipodi:ry="3.2705259"
         sodipodi:start="4.1887902"
         sodipodi:end="3.4906585"
         sodipodi:arc-type="arc"
         d="m -113.61707,26.269603 a 3.2705259,3.2705259 0 0 1 4.14063,0.730105 3.2705259,3.2705259 0 0 1 0,4.204507 3.2705259,3.2705259 0 0 1 -4.14063,0.730105 3.2705259,3.2705259 0 0 1 -1.43803,-3.950945"
         sodipodi:open="true" /></g><path
       id="path16"
       style="fill:#000000;stroke-width:0.101309"
       d="m -111.77996,27.413596 c -0.24361,-0.005 -0.49499,0.04843 -0.70435,0.161747 -0.18249,0.09877 -0.40312,0.346438 -0.47129,0.52865 -0.11685,0.312296 -0.0567,0.661542 0.15503,0.902787 l 0.0837,0.0956 -0.094,0.10232 c -0.21652,0.236393 -0.26496,0.668396 -0.10955,0.972033 0.13966,0.27286 0.41376,0.485672 0.74,0.574126 0.23736,0.06435 0.59697,0.04911 0.81752,-0.03462 0.20861,-0.07918 0.36111,-0.181033 0.39171,-0.261482 0.0311,-0.0819 -0.0187,-0.19113 -0.11111,-0.24288 -0.0628,-0.0352 -0.0841,-0.03029 -0.27647,0.06356 -0.3537,0.172473 -0.7327,0.157068 -1.00148,-0.04082 -0.28958,-0.213193 -0.34389,-0.570302 -0.11937,-0.783931 0.13804,-0.131333 0.23156,-0.153996 0.63613,-0.153996 0.35258,0 0.35631,-8.66e-4 0.41134,-0.0708 0.0692,-0.08804 0.0708,-0.172769 0.004,-0.254765 -0.049,-0.06054 -0.0697,-0.06366 -0.47801,-0.07648 -0.41672,-0.01309 -0.42897,-0.01554 -0.52503,-0.08888 -0.0541,-0.0413 -0.11778,-0.112624 -0.14159,-0.158647 -0.0567,-0.109594 -0.055,-0.309749 0.003,-0.433049 0.0649,-0.136673 0.25877,-0.299425 0.42375,-0.355533 0.19675,-0.06692 0.50389,-0.06171 0.66817,0.01137 l 0.12713,0.05685 v 0.21549 c 0,0.24085 0.0451,0.323495 0.17622,0.323495 0.16681,0 0.22667,-0.110715 0.22427,-0.412895 -0.002,-0.256045 -0.0417,-0.359724 -0.1726,-0.449068 -0.17779,-0.121402 -0.41323,-0.184995 -0.65681,-0.190169 z" /></g></svg>
